# xmcd
#
# Track frame offsets:
#	150
#	22847
#	43210
#	60150
#	76440
#	96700
#	118480
#	137902
#	152922
#	176030
#	200602
#	222005
#	238477
#
# Disc length: 3452 seconds
#
# Revision: 1
# Processed by: cddbd v1.5.1PL0 Copyright (c) Steve Scherf et al.
# Submitted via: CDex 1.50Beta5
#
DISCID=c30d7a0d
DTITLE=遠藤響子 - kyk style
DYEAR=1900
DGENRE=Pop
TTITLE0=どこにもいない
TTITLE1=いつまでも いつまでも
TTITLE2=ピンクのバラの花
TTITLE3=風の歌
TTITLE4=グレイの海
TTITLE5=丸い心、不滅の心
TTITLE6=運命腺
TTITLE7=mid-night
TTITLE8=Positive
TTITLE9=何も言わなくても…
TTITLE10=星
TTITLE11=明日になれば
TTITLE12=木の葉
EXTD=
EXTT0=
EXTT1=
EXTT2=
EXTT3=
EXTT4=
EXTT5=
EXTT6=
EXTT7=
EXTT8=
EXTT9=
EXTT10=
EXTT11=
EXTT12=
PLAYORDER=
